PathFileType	4	(X/Y/Z)	T1_P2_NoVision_Movement_3_0-732.trc
DataRate	CameraRate	NumFrames	NumMarkers	Units	OrigDataRate	OrigDataStartFrame	OrigNumFrames
60	60	5	27	m	60	549	732
Frame#	Time	RHip			RKnee			RAnkle			RBigToe			RSmallToe			RHeel			LHip			LKnee			LAnkle			LBigToe			LSmallToe			LHeel			Neck			Head			Nose			RShoulder			RElbow			RWrist			RThumb			RIndex			RPinky			LShoulder			LElbow			LWrist			LThumb			LIndex			LPinky		
		X1	Y1	Z1	X2	Y2	Z2	X3	Y3	Z3	X4	Y4	Z4	X5	Y5	Z5	X6	Y6	Z6	X7	Y7	Z7	X8	Y8	Z8	X9	Y9	Z9	X10	Y10	Z10	X11	Y11	Z11	X12	Y12	Z12	X13	Y13	Z13	X14	Y14	Z14	X15	Y15	Z15	X16	Y16	Z16	X17	Y17	Z17	X18	Y18	Z18	X19	Y19	Z19	X20	Y20	Z20	X21	Y21	Z21	X22	Y22	Z22	X23	Y23	Z23	X24	Y24	Z24	X25	Y25	Z25	X26	Y26	Z26	X27	Y27	Z27
550	9.166666666666666	463.43353766087773	3656.685288506762	552.0003827540022	884.2608606598058	3711.8248623371574	567.6159858251362	1228.750205535945	3698.602746063112	613.3666606966311	1324.457371054448	3623.7701743900852	610.6494204973033	1300.8741551784863	3633.733339072811	546.5234538623902	1256.181814622705	3688.9890469287275	625.7650774724725	468.6318610784072	3540.0365047201553	746.5395803671524	879.3367529939126	3562.8558004640036	739.4792244325228	1209.9657572001681	3588.065574022371	719.7492298141722	1327.349007258296	3569.4948436066006	682.3503559875925	1272.2256215587026	3474.9670462175854	706.6561108097578	1264.3481838269813	3616.2746094341596	719.7874975392566	-127.65199070402156	3542.6337467477956	638.9868960234733	-373.91174833111427	3505.5421210775685	624.247129245899	-240.6612009007239	3447.8422253148233	581.7974172204448	-44.65909681115293	3695.332169560481	543.1690914444831	201.38107122833893	3749.130907742336	478.1540703956877	440.58625040859295	3702.6697505598054	421.02846311839045	555.7165771116769	3605.089976547117	422.1985399741868	594.9287962025883	3657.8371213776118	416.0784793016463	590.9593320257728	3692.6767971271543	406.78027021724125	-22.29916791212439	3550.7132083654888	833.1096230635292	237.6480414841999	3456.919524032187	842.3056673095781	483.7539421012518	3437.0190563178085	831.3885126726288	580.0042681595671	3428.450582906219	765.0527744713139	603.9292837773198	3434.7308705919277	807.1908883189203	605.2012444185897	3421.419593376844	829.485396755563
551	9.183333333333334	463.3639376173634	3656.5257955391835	551.8914801775716	882.2427433916325	3706.5653108614515	564.6564782361253	1231.2688148892075	3700.684465445623	614.0704935920013	1325.9149036138679	3624.2038896499776	610.9254251320812	1297.4729299802523	3627.8940258861594	543.0731233383676	1258.3700842824583	3690.5166207027473	626.4965110291512	467.465972374068	3540.087471092673	746.3147599440225	877.2632500761965	3562.6923567313934	739.2087153680637	1210.3272747674591	3589.012945395076	721.6920344605729	1324.0548684077107	3562.871169331447	678.14039665888	1272.6197754315263	3473.3214749718136	706.2586178484881	1264.773030440136	3618.359912298694	720.8633077937023	-127.61352870070553	3542.3296513815108	638.71749376304	-373.90342127763614	3505.4147851701837	624.2004106289338	-240.08447362569177	3442.5722746000133	577.254567314766	-44.65764233972245	3695.300142943126	543.1233869729152	201.369404035051	3749.373936127914	478.30911167085225	439.39799967996817	3696.7565695578705	416.5214737128332	555.4572063654409	3608.5641068131163	421.7884326345102	595.6527424266667	3659.5035274496654	416.3952179069509	591.1047740553141	3692.9175201122107	406.827965804209	-21.24585298650749	3548.0416833838085	831.1555830667834	237.02696422213984	3456.7336356358146	842.1924454482423	485.3323970275822	3435.6710081458905	830.5710874895054	580.4123696992775	3428.3585664199613	764.9389341419462	603.9935598571353	3434.7660536519793	807.1788067621393	605.3535509353464	3421.744892510773	829.7087803815284
552	9.2	463.16363654058335	3656.435010341323	551.8510504873366	878.0223804893673	3701.5685465952656	560.7107594902863	1233.3832740312123	3702.8356428103657	614.9365781951402	1328.4245202676598	3625.1853174765693	611.2741737447844	1294.6906753465175	3623.7977251234774	540.0284954741709	1259.7849476934832	3692.211396169745	627.1343577585774	465.48286935954326	3539.288599620938	745.8380714405884	875.4571342034003	3563.1145979270686	739.3348709877854	1212.230781274459	3590.376815627031	724.547871708473	1321.760695971902	3560.1110849176725	674.67820585382	1275.7767713708436	3475.774787596333	707.2160184619306	1265.212385663216	3620.354271325446	722.0523119317236	-127.59257673251835	3542.6083150228105	638.938136612709	-374.0024979525834	3505.270661555855	624.1964182829839	-240.39300037219135	3439.141974238648	574.0962964281664	-44.63293668917043	3695.6990348042036	543.3793423750255	201.37893643034357	3749.461018540083	478.3412172241554	438.48396952101785	3692.270151985733	413.09573795312235	555.8374247077363	3611.247573377392	420.78477180616613	596.0935983964722	3659.0389682962905	416.24399145382165	591.1460428332732	3693.128473671288	406.8540917297496	-20.05093375243912	3543.9544918284073	827.7796729192706	235.79911142645565	3456.384020032987	841.964815217364	486.98915091222574	3434.7418703412554	830.0417868186919	580.4939088985357	3428.198178390703	764.8291806748025	604.0359005165128	3434.589335231859	807.071787627841	605.4331014295506	3421.7025322275226	829.7669797846563
553	9.216666666666669	463.02488378286273	3656.426638237449	551.8401460691255	873.1812811013349	3698.0402000348295	556.5458793096378	1234.4112750084769	3703.871744525199	615.4143548562154	1330.41833102678	3626.2178528224317	611.4056153978682	1294.0136928299996	3622.9687014832307	539.0333990399771	1260.2900103225793	3692.7255516274463	627.9037391000605	463.9333310199873	3538.63536528576	745.487147370509	874.6415906657195	3563.5123243566704	739.5293373433402	1214.6592874597695	3591.2906601346954	726.8493138945541	1322.2853492034003	3562.854119310218	674.3975894421451	1280.0251155609249	3480.1472826609233	708.7242637949357	1265.5114002096423	3621.151924331138	723.016730026857	-127.63082290294872	3542.877523629148	639.1378169397458	-374.06558604011104	3505.189289341497	624.2170047189028	-241.5342364554002	3438.6167360864347	573.2614676193706	-44.608126933939836	3695.9679891567566	543.5105696270297	201.3941661461869	3749.5142758474785	478.3487775073858	438.1378214255824	3690.5958154926034	411.7553750912196	556.9445927339449	3613.345440808571	420.042003648055	596.8700114041002	3658.193125719029	416.0487039126346	591.081524145835	3693.2140561866545	406.8560314985712	-19.642666266993036	3541.055207935342	824.589536447459	234.69731124060698	3456.0661171381034	841.7531856632622	488.22082385330003	3434.50635013093	829.9549892854106	580.4177072976673	3428.089547534928	764.7964178621777	604.0535928913549	3434.3529476533845	806.9146631020922	605.4572611805627	3421.4609637644494	829.7021895219093
554	9.233333333333333	462.95348015090843	3656.3605574986373	551.7742198776245	869.2981376900009	3695.85196139329	553.4071690571709	1234.5320822695062	3703.503880756318	615.2660553918996	1330.2081284496105	3626.5899968181207	611.1775462623785	1295.9374465977248	3625.5633250080973	540.5859616277436	1260.3823667971076	3691.8868440507786	628.893058401162	463.27847079094386	3538.3664814463036	745.3475750344627	874.4989956055587	3563.6151047448666	739.6212215473073	1216.364840493357	3591.7434906863505	727.8970281217505	1325.425701655227	3569.099191483296	678.2372630833511	1282.8042552086326	3483.294024427444	709.6378610055228	1265.5644434692038	3620.9181852661313	723.7288489206283	-127.72488804157155	3543.0448215581564	639.2338839743423	-374.13232268557977	3505.7932367219673	624.4072375421184	-242.8435445530968	3439.60827292447	573.7438075259911	-44.58716231628057	3696.058736573841	543.5160590183795	201.41947909970793	3749.57455976506	478.3729867176391	438.16914199901095	3690.882748521793	411.80421908910114	558.0674701866193	3614.435894386357	419.81937654675596	597.6980878543443	3658.1451373248847	416.0738171115436	590.647940659408	3692.84183653382	406.7530180883361	-20.328085980526104	3541.484923339416	823.1093210614653	234.72773025928643	3456.074271660072	841.7516410526664	489.0634723185443	3434.7151945297287	830.1357526151583	580.2506141380622	3427.8169576258147	764.5512337713893	604.0593555392938	3434.1978277970525	806.7992310246716	605.4482071023001	3421.1903909435887	829.5586496564194
